<svg width="700" height="700" viewBox="0 0 700 700" fill="none" xmlns="http://www.w3.org/2000/svg">
<path d="M121 115.361C154.385 115.292 187.77 115.24 221.155 115.208C225.107 115.204 229.059 115.2 233.012 115.196C234.192 115.195 234.192 115.195 235.396 115.194C248.091 115.181 260.786 115.157 273.481 115.13C286.533 115.102 299.585 115.085 312.636 115.079C320.673 115.075 328.71 115.062 336.746 115.037C342.936 115.02 349.126 115.018 355.315 115.022C357.835 115.021 360.354 115.015 362.873 115.004C378.177 114.937 392.902 115.801 408 118.361C408.7 118.478 409.399 118.595 410.12 118.716C433.44 122.655 456.286 129.798 477 141.361C477 142.021 477 142.681 477 143.361C477.673 143.593 478.346 143.825 479.039 144.064C482.777 145.702 486.001 147.831 489.375 150.111C490.374 150.78 490.374 150.78 491.394 151.463C495.873 154.498 499.95 157.772 504 161.361C504.99 161.691 505.98 162.021 507 162.361C508.402 163.787 508.402 163.787 509.938 165.674C513.091 169.408 516.449 172.823 519.938 176.236C538.102 194.258 557.233 221.581 562.441 246.983C563.636 252.067 565.618 256.923 567.434 261.812C569.533 267.611 570.904 273.299 572 279.361C572.317 280.891 572.639 282.419 572.965 283.947C582.494 330.119 582.948 383.343 569.914 429.01C568.824 433.007 568.066 437.006 567.395 441.092C567.025 443.216 566.551 445.277 566 447.361C565.34 447.361 564.68 447.361 564 447.361C563.874 448.531 563.874 448.531 563.746 449.724C562.748 454.591 560.955 458.966 559.062 463.549C558.67 464.506 558.278 465.463 557.873 466.45C553.843 476.075 549.047 485.236 544 494.361C543.34 494.361 542.68 494.361 542 494.361C541.781 495.033 541.562 495.704 541.336 496.396C539.585 500.282 537.203 503.423 534.625 506.799C534.093 507.5 533.56 508.2 533.012 508.922C508.24 541.232 508.24 541.232 492.645 547.767C489.069 549.331 486.199 551.141 483 553.361C443.419 579.609 397.17 584.549 350.959 584.475C348.464 584.474 345.969 584.475 343.474 584.475C338.134 584.475 332.794 584.473 327.454 584.467C319.733 584.459 312.012 584.456 304.292 584.455C291.761 584.453 279.23 584.446 266.7 584.437C254.538 584.427 242.376 584.42 230.214 584.416C229.463 584.416 228.711 584.416 227.937 584.415C224.166 584.414 220.396 584.413 216.625 584.412C185.417 584.401 154.208 584.384 123 584.361C124.98 579.081 126.96 573.801 129 568.361C129.66 568.361 130.32 568.361 131 568.361C131.371 567.217 131.371 567.217 131.75 566.049C133.42 561.123 135.21 556.244 137 551.361C137.66 551.361 138.32 551.361 139 551.361C139.277 550.51 139.554 549.66 139.84 548.783C141.001 545.357 142.26 541.986 143.562 538.611C143.997 537.482 144.431 536.353 144.879 535.189C146 532.361 146 532.361 147 530.361C147.66 530.361 148.32 530.361 149 530.361C149.22 529.414 149.22 529.414 149.445 528.447C152.299 517.065 156.984 506.423 163 496.361C163.66 496.361 164.32 496.361 165 496.361C165.268 495.495 165.536 494.629 165.812 493.736C167 490.361 167 490.361 168.461 487.537C169.969 484.425 170.907 481.504 171.812 478.174C173.444 472.683 175.625 468.063 178.488 463.123C180.612 459.243 182.191 455.19 183.84 451.092C185.301 447.653 187.099 444.574 189 441.361C189.681 439.7 190.347 438.033 191 436.361C191.657 435.023 192.324 433.69 193 432.361C194.497 429.405 195.795 426.45 197 423.361C199.499 417.347 202.435 411.699 205.621 406.021C206.87 403.612 207.783 401.309 208.625 398.736C209.079 397.622 209.533 396.509 210 395.361C212.086 394.65 212.086 394.65 214 394.361C214.231 394.979 214.461 395.596 214.699 396.232C216.706 401.444 218.981 406.234 221.773 411.064C223.509 414.315 224.779 417.703 226.09 421.142C226.995 423.518 226.995 423.518 228.688 426.111C230.276 428.835 230.638 431.252 231 434.361C231.66 434.361 232.32 434.361 233 434.361C233.242 435.002 233.485 435.643 233.734 436.303C235.304 440.353 236.848 444.303 239.062 448.049C241 451.361 241 451.361 242.438 454.736C244.035 458.443 245.933 461.796 248.012 465.248C249 467.361 249 467.361 249 471.361C248.34 471.691 247.68 472.021 247 472.361C246.249 474.17 245.577 476.01 244.938 477.861C242.843 483.528 240.324 488.745 237.438 494.049C234.584 499.299 231.92 504.467 229.852 510.088C228.676 513.226 227.326 516.284 226 519.361C246.56 519.347 267.12 519.305 287.68 519.229C297.229 519.195 306.778 519.169 316.327 519.166C324.663 519.163 332.998 519.142 341.333 519.101C345.736 519.08 350.138 519.067 354.54 519.075C374.249 519.106 392.806 518.456 412 513.361C412.972 513.109 413.945 512.857 414.946 512.597C420.105 511.232 424.903 509.706 429.734 507.424C431.581 506.557 433.457 505.753 435.34 504.967C445.567 500.481 454.568 494.644 463 487.361C463.746 486.759 464.493 486.157 465.262 485.537C472.887 479.189 478.866 471.314 484.168 462.963C484.773 462.104 485.377 461.246 486 460.361C486.66 460.361 487.32 460.361 488 460.361C488.107 459.641 488.214 458.92 488.324 458.178C489.059 455.116 490.205 452.998 491.812 450.299C494.655 445.282 496.505 440.312 498.141 434.795C499 432.361 499 432.361 501 430.361C502.387 426.669 503.378 422.846 504.438 419.049C504.75 417.929 505.063 416.809 505.385 415.655C508.175 405.319 509.925 395.003 511 384.361C511.094 383.513 511.187 382.665 511.283 381.791C512.247 372.018 512.196 362.234 512.188 352.424C512.188 351.516 512.188 350.609 512.189 349.674C513.89 328.264 513.89 328.264 509 309.361C508.617 307.768 508.295 306.16 508 304.549C507.835 303.676 507.67 302.803 507.5 301.904C507.064 298.817 506.849 295.822 506.664 292.713C506.15 286.284 504.505 280.612 502.375 274.549C502.015 273.503 501.654 272.457 501.283 271.379C489.776 238.623 470.154 213.451 439 197.361C438.13 196.906 437.26 196.451 436.363 195.982C426.86 191.107 417.331 188.302 406.988 185.849C405.045 185.372 403.116 184.838 401.188 184.303C391.056 181.799 380.43 182.196 370.064 182.156C368.486 182.146 366.908 182.136 365.33 182.126C361.079 182.099 356.827 182.078 352.576 182.058C348.121 182.036 343.666 182.009 339.211 181.982C330.79 181.932 322.368 181.887 313.947 181.844C304.353 181.794 294.759 181.739 285.165 181.684C265.444 181.571 245.722 181.464 226 181.361C226.789 183.273 227.58 185.185 228.371 187.096C228.811 188.16 229.251 189.224 229.705 190.321C231.311 194.092 233.11 197.727 235 201.361C237.904 207.043 240.469 212.77 242.852 218.693C244.273 221.995 246.012 225.037 247.812 228.142C249.517 231.327 250.745 234.657 252.035 238.025C253.137 240.692 254.513 243.054 256 245.517C257.634 248.529 258.761 251.736 259.984 254.932C260.923 257.176 261.986 259.163 263.25 261.236C265 264.361 265 264.361 265 268.361C265.66 268.361 266.32 268.361 267 268.361C267.329 269.253 267.329 269.253 267.664 270.162C269.504 274.972 271.542 279.492 274.062 283.986C276.128 287.67 277.779 291.208 279.152 295.189C280.68 299.104 282.675 302.797 284.598 306.529C286 309.361 286 309.361 287 311.889C288.114 314.644 289.48 317.147 290.938 319.736C293.222 323.868 295.177 328.003 297 332.361C298.25 334.897 299.527 337.416 300.816 339.932C302.812 344.027 304 346.732 304 351.361C304.66 351.361 305.32 351.361 306 351.361C308.255 355.89 310.496 360.425 312.726 364.966C313.485 366.507 314.247 368.046 315.013 369.583C316.12 371.805 317.213 374.034 318.305 376.264C318.644 376.939 318.984 377.614 319.334 378.31C321.71 383.208 323.023 388.012 324 393.361C324.66 393.361 325.32 393.361 326 393.361C326.944 395.337 327.88 397.317 328.812 399.299C329.335 400.401 329.857 401.503 330.395 402.639C332.259 406.767 333.635 411.046 335 415.361C340.068 415.461 345.135 415.533 350.204 415.581C351.923 415.601 353.643 415.628 355.362 415.663C369.22 415.937 381.01 414.767 392 405.361C396.929 400.22 400.764 395.466 402 388.361C402.66 388.361 403.32 388.361 404 388.361C404.133 387.652 404.267 386.943 404.404 386.213C404.791 384.361 405.233 382.52 405.739 380.697C408.16 371.696 408.494 363.112 408.446 353.859C408.438 351.364 408.466 348.872 408.498 346.377C408.54 336.641 407.404 328.578 404 319.361C403.418 317.325 402.853 315.284 402.312 313.236C401.605 310.573 400.872 307.976 400 305.361C399.34 305.361 398.68 305.361 398 305.361C397.608 304.392 397.216 303.422 396.812 302.424C391.592 293.38 381.093 289.068 371.579 286.217C365.942 284.869 360.474 284.758 354.699 284.752C352.896 284.727 352.896 284.727 351.056 284.702C347.266 284.654 343.477 284.632 339.688 284.611C337.097 284.583 334.506 284.553 331.916 284.521C325.611 284.448 319.306 284.396 313 284.361C312.746 283.713 312.491 283.064 312.229 282.396C310.306 277.535 308.325 272.748 306.047 268.041C305.247 266.384 305.247 266.384 304.431 264.693C303.877 263.552 303.322 262.411 302.75 261.236C302.169 260.036 301.589 258.836 301.008 257.635C297.862 251.146 294.681 244.677 291.438 238.236C284 223.458 284 223.458 284 219.361C295.353 219.315 306.706 219.279 318.059 219.258C323.331 219.247 328.602 219.233 333.874 219.21C338.964 219.189 344.054 219.177 349.144 219.171C351.083 219.168 353.023 219.161 354.963 219.15C357.684 219.135 360.406 219.133 363.127 219.134C363.925 219.127 364.723 219.12 365.544 219.112C370.369 219.13 374.366 219.863 379 221.361C381.475 221.799 383.955 222.215 386.438 222.611C397.564 224.541 407.681 228.899 418 233.361C418 234.021 418 234.681 418 235.361C419.027 235.698 419.027 235.698 420.074 236.041C423.775 237.711 426.659 239.956 429.812 242.486C430.433 242.98 431.053 243.475 431.692 243.984C441.85 252.18 450.888 261.214 456 273.361C457.288 275.563 458.601 277.751 459.938 279.924C463.417 285.77 465.505 291.461 467.113 298.107C467.926 301.432 467.926 301.432 469.5 304.662C475.67 319.879 474.293 338.587 474.312 354.736C474.318 356.152 474.318 356.152 474.323 357.596C474.329 360.339 474.318 363.08 474.301 365.822C474.302 366.635 474.302 367.448 474.303 368.285C474.233 374.166 473.3 379.635 472 385.361C471.701 386.774 471.402 388.186 471.105 389.599C464.467 419.595 448.444 446.4 422.723 463.709C420 465.361 420 465.361 418 465.361C418 466.021 418 466.681 418 467.361C412.684 469.736 407.352 472.07 402 474.361C401.038 474.774 400.077 475.186 399.086 475.611C384.934 481.219 369.968 481.837 354.945 481.83C353.183 481.837 351.421 481.845 349.659 481.853C346.007 481.866 342.355 481.868 338.703 481.862C334.021 481.856 329.34 481.887 324.658 481.927C321.037 481.953 317.418 481.956 313.797 481.952C312.069 481.954 310.341 481.964 308.613 481.982C306.213 482.004 303.815 481.994 301.415 481.976C300.704 481.99 299.993 482.003 299.261 482.017C297.283 481.983 297.283 481.983 294 481.361C291.681 478.441 290.515 475.346 289.25 471.861C287.145 466.423 284.4 461.427 281.598 456.322C279.419 452.285 277.694 448.143 276.031 443.873C273.204 436.814 269.851 430.194 266.237 423.518C263.785 418.952 261.693 414.4 259.887 409.537C258.95 407.239 257.816 405.189 256.562 403.049C254.513 399.504 253.033 395.956 251.625 392.111C249.401 386.085 246.626 380.718 243.453 375.139C242.232 372.805 241.468 370.93 241 368.361C240.34 368.361 239.68 368.361 239 368.361C238.769 367.623 238.539 366.884 238.301 366.123C234.881 355.484 230.2 345.711 225.16 335.772C222.161 329.804 219.468 323.72 216.799 317.599C214.787 313.023 212.597 308.663 210.07 304.346C208.887 302.153 208.008 299.941 207.125 297.611C205.553 293.495 203.628 289.72 201.5 285.861C198.963 281.262 196.877 276.728 195.027 271.822C193.868 269.044 192.474 266.486 191 263.861C188.593 259.573 186.681 255.286 184.93 250.697C183.785 247.82 182.415 245.103 180.996 242.353C179.939 240.239 178.998 238.094 178.062 235.924C176.72 232.85 175.24 229.952 173.562 227.049C171.035 222.619 169.169 218.018 167.262 213.295C165.776 209.841 164.026 206.629 162.113 203.396C161 201.361 161 201.361 160.09 199.072C158.686 195.58 156.964 192.27 155.25 188.924C152.009 182.536 149.133 176.084 146.371 169.474C144.842 166.002 143.053 162.778 141.148 159.502C139.479 156.389 138.292 153.125 137.031 149.83C135.685 146.608 133.969 143.672 132.223 140.654C130.921 138.213 129.922 135.757 128.938 133.174C127.779 130.135 126.702 127.915 124.875 125.174C122.748 121.983 121.979 119.047 121 115.361Z" fill="#B8A069"/>
</svg>
