<svg width="700" height="700" viewBox="0 0 700 700" fill="none" xmlns="http://www.w3.org/2000/svg">
<path d="M147.004 93.0039C150.044 93.0052 153.085 93.0032 156.125 93.0017C162.043 92.9993 167.962 92.9998 173.88 93.0014C178.693 93.0027 183.506 93.0028 188.319 93.0022C189.009 93.0021 189.7 93.0021 190.411 93.002C191.814 93.0018 193.217 93.0016 194.62 93.0014C207.33 92.9999 220.041 93.0015 232.751 93.0043C244.32 93.0069 255.889 93.0067 267.458 93.0041C280.516 93.0012 293.574 93 306.633 93.0017C308.027 93.0019 309.421 93.0021 310.814 93.0022C311.843 93.0023 311.843 93.0023 312.892 93.0025C317.699 93.0029 322.505 93.0022 327.312 93.0009C333.169 92.9993 339.027 92.9998 344.885 93.0027C347.867 93.0041 350.849 93.0047 353.831 93.0028C356.569 93.0012 359.306 93.0021 362.044 93.005C363.026 93.0056 364.007 93.0053 364.989 93.004C374.176 92.9924 383.394 93.1998 392.537 94.153C393.043 94.2037 393.549 94.2544 394.07 94.3066C395.665 94.4692 397.259 94.6384 398.854 94.81C399.684 94.8983 399.684 94.8983 400.531 94.9885C410.103 96.0196 419.45 97.4748 428.844 99.6066C429.675 99.7881 429.675 99.7881 430.524 99.9733C437.556 101.52 444.382 103.599 451.208 105.866C451.581 105.99 451.955 106.113 452.339 106.241C458.823 108.402 465.381 110.631 471.45 113.801C472.506 114.349 473.576 114.853 474.656 115.353C500.621 127.366 525.027 145.396 542.732 168.026C543.728 169.276 543.728 169.276 544.813 170.309C546.233 171.747 547.445 173.318 548.666 174.923C549.013 175.373 549.013 175.373 549.368 175.833C550.851 177.77 552.228 179.754 553.567 181.795C553.977 182.401 554.388 183.007 554.799 183.613C557.774 188.012 560.592 192.478 563.284 197.056C563.941 198.165 564.609 199.267 565.28 200.369C568.467 205.637 571.223 211.003 573.719 216.629C574.146 217.585 574.146 217.585 574.581 218.56C577.429 225.079 579.947 231.737 582.434 238.401C582.645 238.965 582.856 239.529 583.074 240.111C585.798 247.558 588.215 255.129 589.71 262.924C590.027 264.53 590.027 264.53 590.58 266.049C591.314 268.302 591.755 270.572 592.203 272.896C592.289 273.327 592.374 273.759 592.462 274.203C592.755 275.694 593.041 277.186 593.327 278.679C593.454 279.333 593.581 279.988 593.712 280.663C594.723 285.914 595.585 291.178 596.356 296.47C596.415 296.872 596.474 297.273 596.534 297.687C597.837 306.619 598.775 315.517 599.132 324.539C599.149 324.957 599.166 325.374 599.184 325.805C599.197 326.165 599.21 326.526 599.223 326.897C599.299 327.954 599.436 329.006 599.592 330.055C600.026 333.448 599.962 336.862 599.973 340.277C599.977 341.036 599.981 341.794 599.984 342.552C599.995 344.983 599.997 347.414 599.999 349.845C599.999 350.257 599.999 350.67 600 351.094C600.01 363.684 599.713 376.111 598.228 388.626C598.102 389.818 597.976 391.01 597.852 392.202C596.567 404.092 595.001 416.218 591.972 427.802C591.664 429.017 591.383 430.236 591.106 431.459C589.815 437.117 588.344 442.711 586.757 448.294C586.489 449.242 586.489 449.242 586.215 450.209C585.106 454.057 583.855 457.817 582.434 461.561C582.257 462.033 582.08 462.506 581.898 462.993C579.126 470.38 576.339 477.696 572.754 484.732C571.714 486.778 570.706 488.833 569.741 490.914C569.53 491.368 569.319 491.822 569.102 492.289C568.699 493.16 568.299 494.033 567.903 494.907C566.692 497.52 565.293 499.875 563.663 502.248C562.841 503.45 562.059 504.67 561.288 505.906C561.034 506.312 560.781 506.719 560.519 507.138C560.128 507.765 560.128 507.765 559.729 508.404C557.557 511.862 555.338 515.279 553.023 518.644C552.781 518.996 552.539 519.348 552.29 519.711C550.968 521.616 549.594 523.45 548.121 525.243C547.741 525.706 547.361 526.169 546.97 526.646C546.575 527.126 546.179 527.606 545.772 528.101C543.843 530.445 541.983 532.829 540.175 535.268C539.795 535.694 539.795 535.694 539.407 536.129C539.047 536.129 538.688 536.129 538.317 536.129C538.118 536.596 538.118 536.596 537.915 537.073C537.105 538.526 536.149 539.47 534.947 540.619C533.314 542.21 531.761 543.816 530.284 545.552C528.905 547.159 527.479 548.449 525.791 549.736C525.364 550.163 524.937 550.589 524.497 551.029C523.376 552.15 522.248 553.215 521.059 554.261C520.742 554.539 520.426 554.818 520.099 555.105C519.255 555.723 519.255 555.723 518.165 555.723C517.986 556.262 517.806 556.801 517.621 557.356C516.844 558.058 516.844 558.058 515.817 558.785C513.932 560.141 512.078 561.526 510.234 562.935C507.352 565.101 504.391 567.118 501.371 569.086C499.439 570.349 497.635 571.692 495.835 573.141C494.751 573.695 493.661 574.238 492.567 574.774C491.758 575.256 490.953 575.744 490.15 576.236C479.78 582.482 468.753 587.436 457.403 591.613C456.744 591.857 456.084 592.101 455.404 592.352C451.38 593.804 447.352 594.992 443.213 596.055C441.717 596.453 440.269 596.891 438.809 597.4C413.517 606.127 385.676 606.056 359.286 605.988C355.799 605.981 352.312 605.983 348.824 605.984C342.808 605.986 336.791 605.98 330.774 605.971C324.477 605.961 318.179 605.955 311.881 605.953C311.487 605.953 311.093 605.953 310.687 605.953C308.684 605.952 306.681 605.952 304.678 605.951C290.559 605.948 276.44 605.937 262.321 605.922C248.621 605.907 234.92 605.895 221.219 605.888C220.795 605.888 220.371 605.888 219.935 605.887C215.679 605.885 211.424 605.883 207.169 605.881C198.503 605.877 189.837 605.872 181.171 605.867C180.773 605.867 180.375 605.867 179.965 605.867C153.45 605.852 126.936 605.826 100.422 605.798C100.75 603.257 101.135 601.352 102.362 599.097C103.807 596.337 105.101 593.547 106.345 590.694C107.909 587.125 109.58 583.633 111.353 580.163C112.618 577.667 113.759 575.137 114.855 572.563C116.269 569.243 117.877 566.082 119.61 562.919C120.817 560.697 121.799 558.482 122.684 556.119C123.666 553.741 124.851 551.465 126.025 549.176C127.179 546.916 128.241 544.632 129.261 542.309C130.28 540.024 131.371 537.773 132.454 535.517C134.045 532.189 135.63 528.86 137.186 525.515C138.875 521.882 140.603 518.267 142.334 514.654C143.932 511.306 145.488 507.941 147.03 504.568C149.394 499.401 151.82 494.326 154.557 489.347C155.544 487.472 156.332 485.575 157.071 483.592C157.606 482.254 158.212 480.991 158.867 479.708C160.277 476.919 161.643 474.111 162.988 471.29C163.342 470.549 163.342 470.549 163.702 469.794C165.307 466.412 166.837 463.005 168.319 459.568C169.727 456.316 171.305 453.17 172.934 450.024C174.439 447.076 175.791 444.08 177.115 441.048C178.684 437.463 180.395 434.001 182.269 430.567C183.415 428.464 184.458 426.354 185.399 424.154C187.595 419.045 190.04 414.036 192.416 409.009C193.206 407.336 193.988 405.658 194.765 403.979C194.962 403.555 195.158 403.132 195.361 402.696C195.739 401.882 196.116 401.066 196.49 400.25C197.791 397.457 197.791 397.457 199.003 396.246C200.081 396.308 200.081 396.308 201.181 396.79C201.868 397.772 201.868 397.772 202.452 399.057C202.671 399.528 202.89 400 203.115 400.486C203.342 400.995 203.569 401.504 203.803 402.029C204.163 402.813 204.163 402.813 204.531 403.612C205.016 404.665 205.497 405.72 205.974 406.776C206.801 408.603 207.649 410.419 208.5 412.234C208.947 413.193 208.947 413.193 209.402 414.171C212.629 421.07 215.923 427.937 219.355 434.737C220.533 437.079 221.639 439.443 222.708 441.837C223.852 444.344 225.046 446.828 226.235 449.314C227.144 451.219 228.052 453.124 228.958 455.029C229.125 455.379 229.291 455.728 229.463 456.088C229.854 456.913 230.241 457.74 230.626 458.567C230.824 458.988 231.021 459.409 231.224 459.843C231.726 461.13 231.994 462.379 232.226 463.738C232.586 463.738 232.945 463.738 233.316 463.738C233.468 464.121 233.62 464.504 233.777 464.899C234.795 467.404 235.819 469.886 237.069 472.285C237.242 472.618 237.415 472.952 237.594 473.295C238.094 474.244 238.604 475.189 239.113 476.133C239.898 478 240.066 479.156 239.851 481.155C239.379 482.19 238.897 483.222 238.358 484.223C237.574 485.695 236.873 487.193 236.175 488.707C235.896 489.314 235.616 489.92 235.328 490.544C234.664 492.001 234.018 493.465 233.379 494.933C231.467 499.318 229.466 503.595 227.174 507.795C226.027 509.9 224.984 512.011 224.042 514.213C222.052 518.843 219.841 523.382 217.68 527.935C217.342 528.648 217.342 528.648 216.997 529.376C216.445 530.539 215.894 531.701 215.342 532.863C235.898 532.819 256.454 532.768 277.01 532.711C279.444 532.704 281.879 532.697 284.314 532.69C284.799 532.689 285.283 532.688 285.783 532.686C293.598 532.665 301.414 532.647 309.229 532.631C317.267 532.614 325.305 532.592 333.343 532.568C338.29 532.553 343.238 532.541 348.185 532.533C351.592 532.527 354.999 532.517 358.406 532.504C360.363 532.497 362.319 532.492 364.276 532.491C377.188 532.483 390.138 532.193 402.871 529.87C403.549 529.754 404.228 529.638 404.927 529.519C408.06 528.973 411.093 528.347 414.138 527.42C416.039 526.956 417.951 526.532 419.861 526.107C428.959 524.025 438.066 520.385 446.272 515.99C447.106 515.563 447.94 515.137 448.774 514.712C453.441 512.322 457.858 509.88 462.067 506.737C462.632 506.355 463.197 505.974 463.78 505.581C470.209 501.227 475.661 495.892 481.13 490.408C481.716 489.841 481.716 489.841 482.315 489.262C485.982 485.692 489.303 481.942 491.954 477.549C492.336 476.943 492.718 476.337 493.112 475.713C493.471 475.713 493.831 475.713 494.201 475.713C494.35 475.31 494.499 474.907 494.652 474.492C495.25 473.086 495.909 471.989 496.788 470.746C498.395 468.401 499.748 465.971 501.067 463.455C501.826 462.105 501.826 462.105 502.645 461.036C504.24 458.868 505.182 456.315 506.272 453.867C506.717 452.877 507.175 451.894 507.634 450.911C510.159 445.432 512.063 439.793 513.919 434.057C514.502 432.255 515.112 430.475 515.791 428.708C516.428 427.004 516.929 425.363 517.349 423.597C517.869 421.431 518.4 419.27 518.948 417.112C521.427 407.204 523.008 397.273 523.988 387.111C524.157 385.904 524.157 385.904 524.701 384.816C526.244 374.241 525.962 363.359 525.933 352.7C525.926 350.436 525.93 348.171 525.936 345.906C526.67 329.474 526.67 329.474 524.157 313.513C523.988 312.261 523.84 311.006 523.703 309.75C523.618 308.985 523.532 308.219 523.445 307.453C523.378 306.854 523.378 306.854 523.309 306.243C522.587 299.874 521.798 293.628 520.1 287.433C519.614 285.598 519.191 283.75 518.76 281.902C516.241 271.132 512.97 260.989 508.362 250.92C508.162 250.471 507.963 250.023 507.758 249.561C501.577 235.743 493.973 223.557 483.853 212.275C483.593 211.982 483.333 211.689 483.065 211.386C479.898 207.814 476.651 204.432 472.96 201.389C472.414 200.938 471.867 200.487 471.305 200.022C457.948 189.181 442.492 180.304 425.85 175.665C424.651 175.312 423.484 174.915 422.303 174.504C404.263 168.462 385.231 167.461 366.38 167.517C364.351 167.522 362.322 167.52 360.293 167.519C356.796 167.518 353.298 167.522 349.8 167.528C344.743 167.537 339.686 167.54 334.63 167.541C326.421 167.543 318.212 167.551 310.004 167.561C302.04 167.571 294.076 167.579 286.112 167.583C285.373 167.584 285.373 167.584 284.619 167.584C282.147 167.586 279.675 167.587 277.204 167.588C256.765 167.6 236.326 167.619 215.887 167.643C216.566 169.185 217.248 170.726 217.929 172.267C218.214 172.913 218.214 172.913 218.504 173.572C219.74 176.362 221.041 179.108 222.423 181.829C222.612 182.202 222.801 182.575 222.995 182.959C223.165 183.294 223.335 183.629 223.51 183.974C226.132 189.167 228.563 194.449 230.865 199.79C232.3 203.119 233.866 206.362 235.505 209.594C238.452 215.415 241.134 221.355 243.751 227.33C245.107 230.411 246.59 233.415 248.132 236.407C249.626 239.316 250.963 242.28 252.276 245.273C253.695 248.502 255.174 251.686 256.769 254.832C259.445 260.107 261.941 265.452 264.322 270.866C266.065 274.827 267.886 278.725 269.845 282.583C271.563 285.972 273.166 289.408 274.76 292.856C275.642 294.756 276.538 296.65 277.432 298.545C278.778 301.4 280.117 304.257 281.449 307.118C285.99 316.872 285.99 316.872 290.776 326.508C292.713 330.334 294.38 334.267 296.07 338.207C298.22 343.186 300.554 348.068 303.149 352.832C303.575 353.791 303.575 353.791 303.575 355.424C303.934 355.424 304.294 355.424 304.664 355.424C305.031 356.296 305.393 357.169 305.754 358.043C305.956 358.53 306.158 359.016 306.366 359.517C306.843 360.867 306.843 360.867 306.843 362.5C307.202 362.5 307.562 362.5 307.932 362.5C308.078 362.87 308.224 363.241 308.375 363.622C309.877 367.337 311.559 370.906 313.371 374.477C314.79 377.279 316.128 380.11 317.434 382.966C318.409 385.096 319.396 387.22 320.391 389.34C320.664 389.923 320.664 389.923 320.943 390.518C322.236 393.256 323.583 395.962 324.952 398.661C326.296 401.312 327.503 403.966 328.556 406.745C330.013 410.229 331.815 413.567 333.53 416.929C333.675 417.363 333.82 417.796 333.969 418.243C334.618 419.305 334.618 419.305 336.338 419.428C338.277 419.634 340.147 419.721 342.096 419.723C343.132 419.724 343.132 419.724 344.19 419.726C344.926 419.724 345.662 419.721 346.398 419.718C346.773 419.717 347.148 419.716 347.535 419.715C364.721 419.66 381.334 419.431 395.075 407.676C395.873 406.768 396.646 405.838 397.39 404.886C397.764 404.414 398.137 403.941 398.522 403.453C399.44 402.297 399.44 402.297 399.977 401.144C400.337 401.144 400.696 401.144 401.067 401.144C401.214 400.759 401.361 400.374 401.513 399.977C402.174 398.379 402.929 396.865 403.722 395.327C406.01 390.77 407.718 386.4 408.849 381.42C409.236 379.917 409.236 379.917 409.772 378.716C412.943 370.002 412.122 359.178 412.13 350.049C412.132 349.509 412.133 348.968 412.135 348.411C412.156 337.868 411.894 326.915 408.692 316.779C408.56 316.325 408.428 315.87 408.292 315.401C404.092 301.708 396.287 291.451 383.638 284.666C375.293 280.325 365.389 279.992 356.195 280.118C355.17 280.124 354.146 280.128 353.121 280.131C350.456 280.143 347.79 280.166 345.125 280.194C340.856 280.235 336.587 280.256 332.318 280.278C330.848 280.288 329.378 280.302 327.908 280.317C323.502 280.356 319.108 280.331 314.707 280.109C314.127 280.084 314.127 280.084 313.537 280.058C311.589 279.942 310.685 279.787 309.021 278.679C308.599 277.762 308.181 276.843 307.808 275.905C307.155 274.296 306.342 272.773 305.549 271.229C304.35 268.869 303.237 266.509 302.247 264.051C301.02 261.017 299.589 258.114 298.097 255.203C297.173 253.396 296.293 251.582 295.478 249.723C294.071 246.522 292.538 243.384 291.014 240.238C290.38 238.926 289.746 237.613 289.112 236.3C288.874 235.808 288.874 235.808 288.631 235.305C286.882 231.684 285.14 228.059 283.414 224.427C282.175 221.823 280.917 219.231 279.623 216.653C279.364 216.129 279.105 215.605 278.838 215.065C278.343 214.068 277.842 213.073 277.334 212.083C277.115 211.639 276.897 211.195 276.672 210.738C276.477 210.35 276.281 209.962 276.079 209.563C275.707 208.11 276.183 207.565 276.887 206.288C292.821 205.62 308.766 205.624 324.711 205.614C328.665 205.611 332.62 205.601 336.574 205.586C339.692 205.574 342.809 205.569 345.927 205.568C347.763 205.567 349.598 205.563 351.434 205.554C365.078 205.491 380.08 205.484 393.19 209.679C394.525 210.096 395.864 210.438 397.22 210.778C401.878 212.031 406.367 213.827 410.87 215.541C411.458 215.763 412.045 215.986 412.651 216.215C414.933 217.101 416.946 218.074 419.04 219.351C419.577 219.648 420.114 219.946 420.667 220.252C434.484 227.911 447.098 238.242 456.62 250.92C456.859 251.235 457.098 251.55 457.344 251.874C464.159 260.931 469.908 270.842 474.049 281.4C474.26 281.931 474.26 281.931 474.475 282.472C479.346 294.791 482.533 307.335 484.232 320.471C484.444 322.017 484.723 323.547 485.01 325.08C486.326 332.883 486.133 340.949 486.132 348.838C486.133 350.544 486.143 352.25 486.154 353.956C486.17 359.716 486.016 365.43 485.548 371.172C485.485 371.96 485.485 371.96 485.42 372.763C485.157 375.688 484.732 378.529 484.117 381.401C483.841 382.693 483.6 383.988 483.366 385.288C482.467 390.21 481.484 395.096 480.279 399.954C480.171 400.392 480.063 400.83 479.952 401.281C479.25 404.044 478.342 406.65 477.317 409.309C477.056 410.167 476.805 411.029 476.568 411.894C474.802 417.861 472.002 423.395 469.147 428.903C468.89 429.401 468.633 429.898 468.369 430.411C463.04 440.444 456.581 450.317 448.451 458.295C447.923 458.827 447.396 459.36 446.87 459.894C446.319 460.45 445.768 461.005 445.217 461.561C444.945 461.837 444.673 462.114 444.393 462.399C441.518 465.29 438.361 467.81 435.141 470.304C434.704 470.647 434.704 470.647 434.259 470.998C428.87 475.168 428.87 475.168 426.665 475.168C426.665 475.527 426.665 475.887 426.665 476.257C425.362 476.976 424.057 477.689 422.75 478.4C422.383 478.603 422.017 478.806 421.639 479.015C419.69 480.07 418.006 480.882 415.772 481.155C415.772 481.515 415.772 481.874 415.772 482.244C415.305 482.422 414.838 482.599 414.357 482.782C410.489 484.24 410.489 484.24 406.683 485.85C404.753 486.651 402.816 487.25 400.809 487.825C399.858 488.106 398.915 488.412 397.98 488.739C381.776 493.922 364.76 493.761 347.936 493.746C346.457 493.747 344.978 493.747 343.499 493.748C340.419 493.749 337.339 493.748 334.258 493.745C330.721 493.742 327.183 493.743 323.646 493.746C320.579 493.749 317.512 493.749 314.445 493.748C312.626 493.747 310.807 493.747 308.988 493.748C294.539 493.758 294.539 493.758 287.78 493.13C287.511 492.501 287.241 491.873 286.963 491.225C285.865 488.743 284.651 486.33 283.423 483.911C282.231 481.561 281.081 479.238 280.155 476.767C279.107 473.992 277.684 471.451 276.265 468.853C275.328 467.122 274.446 465.426 273.79 463.568C273.23 461.997 272.64 460.647 271.883 459.175C270.143 455.734 268.53 452.237 266.913 448.736C266.285 447.378 265.656 446.02 265.026 444.662C264.725 444.011 264.423 443.359 264.112 442.688C262.876 440.026 261.626 437.37 260.372 434.716C259.56 433 258.753 431.282 257.957 429.558C256.378 426.147 254.761 422.764 253.059 419.412C250.349 414.065 247.896 408.6 245.416 403.144C244.579 401.306 243.731 399.473 242.881 397.641C242.415 396.632 241.95 395.622 241.485 394.613C241.261 394.127 241.037 393.642 240.807 393.142C240.604 392.695 240.401 392.249 240.192 391.789C240.019 391.411 239.846 391.033 239.668 390.643C239.307 389.714 239.307 389.714 239.307 388.626C238.947 388.626 238.588 388.626 238.217 388.626C237.998 388.011 237.998 388.011 237.775 387.384C236.345 383.511 234.701 379.866 232.819 376.197C231.504 373.619 230.303 371.01 229.163 368.351C227.399 364.245 225.433 360.266 223.382 356.296C221.989 353.565 220.735 350.792 219.529 347.974C218.293 345.094 216.958 342.316 215.444 339.571C213.332 335.733 211.536 331.776 209.745 327.78C207.501 322.79 205.063 317.915 202.562 313.05C201.476 310.919 200.476 308.806 199.616 306.574C198.489 303.67 197.091 300.923 195.669 298.156C194.867 296.571 194.126 294.965 193.397 293.345C191.887 290.001 190.283 286.705 188.675 283.407C186.071 278.063 183.511 272.715 181.21 267.232C180.536 265.641 180.536 265.641 179.708 264.34C178.74 262.707 178.001 261.033 177.244 259.295C176.326 257.208 175.339 255.154 174.358 253.097C173.925 252.188 173.492 251.278 173.06 250.369C172.844 249.916 172.628 249.462 172.406 248.995C171.806 247.73 171.211 246.462 170.617 245.194C168.983 241.702 167.335 238.227 165.575 234.795C163.875 231.44 162.389 228.013 160.912 224.556C159.183 220.511 157.352 216.594 155.223 212.746C154.032 210.584 153.089 208.423 152.221 206.118C151.445 204.232 150.532 202.424 149.61 200.607C146.238 193.962 143.099 187.206 139.953 180.452C138.659 177.675 137.352 174.905 136.043 172.134C134.849 169.6 133.667 167.061 132.492 164.518C128.558 155.984 128.558 155.984 124.402 147.556C121.762 142.341 119.386 136.994 116.949 131.682C115.451 128.421 113.928 125.171 112.404 121.923C112.05 121.163 111.695 120.403 111.34 119.643C109.606 115.935 107.851 112.242 106.005 108.587C104.783 106.169 103.621 103.744 102.554 101.254C101.862 99.7204 101.051 98.2546 100.224 96.7894C99.787 95.538 100.064 94.8703 100.422 93.6193C115.952 93.1721 131.468 92.9943 147.004 93.0039Z" fill="#B9A06C"/>
</svg>
