<svg id="Layer_1" height="512" viewBox="0 0 512 512" width="512" xmlns="http://www.w3.org/2000/svg" xmlns:xlink="http://www.w3.org/1999/xlink" data-name="Layer 1"><linearGradient id="linear-gradient" gradientUnits="userSpaceOnUse" x1="126.15" x2="436.935" y1="117.834" y2="428.619"><stop offset="0" stop-color="#1d1d1b"/><stop offset=".369" stop-color="#1d1d1b" stop-opacity=".856"/><stop offset=".75" stop-color="#1d1d1b" stop-opacity=".429"/><stop offset="1" stop-color="#1d1d1b" stop-opacity="0"/></linearGradient><circle cx="256" cy="256" fill="#03a9f4" r="250"/><path d="m506 256a251.274 251.274 0 0 0 -4.261-46.111l-83.37-83.371s-28.587 13.453-44.594 16.816c-12.579-13.453-30.874-21.3-51.456-21.3-45.377 0-77.534 40.333-68.606 84.082-58.313-3.364-110.913-30.27-145.213-70.629a67.452 67.452 0 0 0 -9.148 33.632c0 23.542 12.578 44.843 30.873 56.054a62.377 62.377 0 0 1 -32.017-8.968c-.214 32.676 23.759 61.615 56.029 67.265-10.234 2.008-21.7 3.649-32.016 1.121a70.339 70.339 0 0 0 66.32 47.086c-28.055 20.956-68.829 34.937-104.054 28.026l144.881 144.884a252.729 252.729 0 0 0 26.632 1.413c138.071 0 250-111.929 250-250z" fill="url(#linear-gradient)" opacity=".49"/><path d="m373.775 143.334c-12.579-13.453-30.874-21.3-51.456-21.3-45.377 0-77.534 40.333-68.606 84.081-58.313-3.363-110.913-30.269-145.213-70.628a67.452 67.452 0 0 0 -9.148 33.632c0 23.542 12.578 44.844 30.873 56.054a62.377 62.377 0 0 1 -32.017-8.968c-.214 32.676 23.759 61.615 56.029 67.265-10.234 2.007-21.7 3.649-32.016 1.121a70.339 70.339 0 0 0 66.32 47.086c-28.055 20.956-68.829 34.937-104.054 28.026 68.66 42.388 162.5 40.539 227.957-7.383 52.778-38.639 79.628-99.762 79.628-164.143a171.859 171.859 0 0 0 35.447-34.753c-12.579 5.606-26.3 8.969-40.02 11.211 13.72-8.969 25.155-21.3 30.872-38.117-.003 0-28.589 13.453-44.596 16.816z" fill="#fff" fill-rule="evenodd"/></svg>